<svg xmlns="http://www.w3.org/2000/svg" width="192.114" height="46.708" viewBox="0 0 192.114 46.708">
  <g id="Group_4" data-name="Group 4" transform="translate(-830 -81.92)">
    <g id="Group_3" data-name="Group 3" transform="translate(741.817 -100.593)">
      <path id="Path_1" data-name="Path 1" d="M132.583,182.513H118.429l-1.8,2.6-15.608,22.548a1.675,1.675,0,0,0-.29.917v8.1h20.447a2.835,2.835,0,0,1,.957-.276V204.086a2.119,2.119,0,0,0-2.284-.625c-1.295.312-1.909.759-3.05.926a6.965,6.965,0,0,1-.742.062,6.02,6.02,0,0,1-4.276-1.832,6.585,6.585,0,0,0,1.723-.351,7.648,7.648,0,0,0,2.671-1.73c1.113-1.049,3.584-4.094,4.443-4.739a3.014,3.014,0,0,1,1.514-.664v-.044h1.1v21.345c.827.144,1.421.54,1.421,1.016,0,.6-.917,1.077-2.051,1.077l-.007.021v-.021a2.8,2.8,0,0,1-1.7-.486H99.366l-.017-35.512H88.183v44.865a1.819,1.819,0,0,0,1.768,1.821l44.452.006,0-44.885A1.826,1.826,0,0,0,132.583,182.513Z" fill="#171716"/>
      <g id="Group_2" data-name="Group 2" transform="translate(153.177 193.489)">
        <path id="Path_2" data-name="Path 2" d="M172.03,196.673h3.7v21.379h9.953v3.377H172.03Z" transform="translate(-172.03 -196.673)" fill="#040506"/>
        <path id="Path_3" data-name="Path 3" d="M214.719,218.052v3.377H199.556V196.673H214.4v3.377H203.222v7.508h9.736v3.415h-9.736v7.079Z" transform="translate(-178.219 -196.673)" fill="#040506"/>
        <path id="Path_4" data-name="Path 4" d="M245.616,196.673l-7.437,24.755H234.73l-7.51-24.755h3.809l5.389,18.611,5.39-18.611Z" transform="translate(-184.439 -196.673)" fill="#040506"/>
        <path id="Path_5" data-name="Path 5" d="M276.213,218.052v3.377H261.05V196.673h14.84v3.377H264.716v7.508h9.736v3.415h-9.736v7.079Z" transform="translate(-192.046 -196.673)" fill="#040506"/>
        <path id="Path_6" data-name="Path 6" d="M291.913,196.673h3.7v21.379h9.952v3.377H291.913Z" transform="translate(-198.985 -196.673)" fill="#040506"/>
        <path id="Path_7" data-name="Path 7" d="M331.327,216.424v5h-3.753v-5H315.14v-.91l15.126-18.841h1.061v19.751Zm-3.753-3.487v-7.81l-6.444,7.81Z" transform="translate(-204.208 -196.673)" fill="#040506"/>
      </g>
    </g>
  </g>
</svg>
