<svg xmlns="http://www.w3.org/2000/svg" width="46.223" height="46.708" viewBox="0 0 46.223 46.708">
  <path id="Path_1" data-name="Path 1" d="M132.583,182.513H118.429l-1.8,2.6-15.608,22.548a1.675,1.675,0,0,0-.29.917v8.1h20.447a2.835,2.835,0,0,1,.957-.276V204.086a2.119,2.119,0,0,0-2.284-.625c-1.295.312-1.909.759-3.05.926a6.965,6.965,0,0,1-.742.062,6.02,6.02,0,0,1-4.276-1.832,6.585,6.585,0,0,0,1.723-.351,7.648,7.648,0,0,0,2.671-1.73c1.113-1.049,3.584-4.094,4.443-4.739a3.014,3.014,0,0,1,1.514-.664v-.044h1.1v21.345c.827.144,1.421.54,1.421,1.016,0,.6-.917,1.077-2.051,1.077l-.007.021v-.021a2.8,2.8,0,0,1-1.7-.486H99.366l-.017-35.512H88.183v44.865a1.819,1.819,0,0,0,1.768,1.821l44.452.006,0-44.885A1.826,1.826,0,0,0,132.583,182.513Z" transform="translate(-88.183 -182.513)" fill="#171716"/>
</svg>
